<svg width="20" height="20" viewBox="0 0 20 20" fill="none" xmlns="http://www.w3.org/2000/svg">
<path fill-rule="evenodd" clip-rule="evenodd" d="M6.12793 3.33317C5.91797 3.33317 5.7166 3.42097 5.56814 3.57725C5.41967 3.73353 5.33626 3.94549 5.33626 4.1665V15.8805L9.62612 12.6551C9.90138 12.4481 10.2711 12.4481 10.5464 12.6551L14.8363 15.8805V4.1665C14.8363 3.94549 14.7529 3.73353 14.6044 3.57725C14.4559 3.42097 14.2546 3.33317 14.0446 3.33317H6.12793ZM4.44855 2.39874C4.89395 1.9299 5.49804 1.6665 6.12793 1.6665H14.0446C14.6745 1.6665 15.2786 1.9299 15.724 2.39874C16.1694 2.86758 16.4196 3.50346 16.4196 4.1665V17.4998C16.4196 17.812 16.2539 18.098 15.9902 18.2408C15.7265 18.3836 15.4091 18.3594 15.1678 18.1779L10.0863 14.3573L5.00474 18.1779C4.76343 18.3594 4.44603 18.3836 4.18234 18.2408C3.91866 18.098 3.75293 17.812 3.75293 17.4998V4.1665C3.75293 3.50346 4.00315 2.86758 4.44855 2.39874Z" fill="#F8C100"/>
</svg>
