<svg width="19" height="18" viewBox="0 0 19 18" fill="none" xmlns="http://www.w3.org/2000/svg">
<g clip-path="url(#clip0)">
<path d="M9.58594 15.75C3.96094 15.75 0.810937 9.6 0.660937 9.3C0.585937 9.075 0.585937 8.85 0.660937 8.625C1.63594 6.825 2.98594 5.25 4.71094 3.975C5.01094 3.675 5.46094 3.75 5.76094 4.125C5.98594 4.425 5.98594 4.95 5.61094 5.175C4.18594 6.225 3.06094 7.5 2.16094 9C2.83594 10.2 5.53594 14.25 9.58594 14.25C11.0109 14.25 12.4359 13.725 13.5609 12.825C13.8609 12.6 14.3859 12.675 14.6109 12.975C14.8359 13.275 14.7609 13.8 14.4609 14.025C13.1109 15.15 11.3859 15.75 9.58594 15.75ZM16.1859 12.15C16.0359 12.15 15.8109 12.075 15.7359 12C15.4359 11.7 15.3609 11.25 15.6609 10.95C16.1859 10.35 16.6359 9.75 17.0109 9.075C16.3359 7.875 13.6359 3.825 9.58594 3.825C9.13594 3.825 8.61094 3.9 8.16094 3.975C7.78594 3.975 7.41094 3.75 7.26094 3.375C7.11094 3 7.41094 2.55 7.78594 2.475C8.38594 2.325 8.98594 2.25 9.58594 2.25C15.2109 2.25 18.3609 8.4 18.5109 8.7C18.5859 8.925 18.5859 9.15 18.5109 9.375C18.0609 10.275 17.4609 11.1 16.7859 11.925C16.6359 12.075 16.4109 12.15 16.1859 12.15ZM9.51094 12.075C8.76094 12.075 8.01094 11.775 7.48594 11.25C6.88594 10.725 6.58594 9.975 6.51094 9.15C6.51094 8.325 6.73594 7.575 7.33594 6.975C7.41094 6.9 7.41094 6.9 7.48594 6.825C7.78594 6.525 8.23594 6.525 8.53594 6.825C8.83594 7.125 8.83594 7.575 8.53594 7.875L8.46094 7.95C8.16094 8.25 8.01094 8.625 8.08594 9C8.08594 9.375 8.23594 9.75 8.53594 10.05C9.13594 10.65 10.1109 10.575 10.6359 9.975C10.9359 9.675 11.3859 9.675 11.6859 9.975C11.9859 10.275 11.9859 10.725 11.6859 11.025C11.1609 11.7 10.3359 12.075 9.51094 12.075Z" fill="white"/>
<path d="M17.8359 18C17.6109 18 17.4609 17.925 17.3109 17.775L0.810938 1.275C0.510938 0.975 0.510938 0.525 0.810938 0.225C1.11094 -0.075 1.56094 -0.075 1.86094 0.225L18.3609 16.725C18.6609 17.025 18.6609 17.475 18.3609 17.775C18.2109 17.925 18.0609 18 17.8359 18Z" fill="white"/>
</g>
<defs>
<clipPath id="clip0">
<rect width="18" height="18" fill="white" transform="translate(0.585938)"/>
</clipPath>
</defs>
</svg>
