<svg width="16" height="15" viewBox="0 0 16 15" fill="none" xmlns="http://www.w3.org/2000/svg">
<path fill-rule="evenodd" clip-rule="evenodd" d="M8.57037 1.71917C9.27763 1.03608 10.2249 0.658102 11.2081 0.666646C12.1914 0.67519 13.1319 1.06957 13.8272 1.76485C14.5225 2.46013 14.9169 3.40068 14.9254 4.38392C14.9339 5.36716 14.556 6.31442 13.8729 7.02167L13.8653 7.02942L11.9903 8.90434C11.6102 9.28464 11.1527 9.57874 10.6488 9.76668C10.145 9.95462 9.60668 10.032 9.07033 9.99359C8.53397 9.95518 8.01215 9.80186 7.54025 9.54404C7.06836 9.28623 6.65743 8.92994 6.33534 8.49934C6.12859 8.22293 6.18505 7.83125 6.46146 7.6245C6.73786 7.41775 7.12954 7.47421 7.3363 7.75062C7.55102 8.03768 7.82497 8.27521 8.13957 8.44709C8.45417 8.61897 8.80205 8.72118 9.15962 8.74678C9.51719 8.77239 9.87609 8.7208 10.212 8.59551C10.5478 8.47021 10.8529 8.27415 11.1063 8.02062L12.9773 6.14959C13.4305 5.67848 13.6811 5.04856 13.6754 4.39478C13.6698 3.73929 13.4068 3.11226 12.9433 2.64874C12.4798 2.18522 11.8528 1.92229 11.1973 1.9166C10.5432 1.91091 9.91302 2.16179 9.44184 2.61531L8.37022 3.68071C8.12543 3.92407 7.7297 3.92292 7.48634 3.67813C7.24297 3.43334 7.24413 3.03762 7.48892 2.79425L8.56392 1.7255L8.57037 1.71917Z" fill="#0d3cc0"/>
<path fill-rule="evenodd" clip-rule="evenodd" d="M5.52279 5.23328C6.02661 5.04534 6.56495 4.96795 7.10131 5.00637C7.63767 5.04478 8.15949 5.19809 8.63138 5.45591C9.10328 5.71373 9.51421 6.07002 9.8363 6.50062C10.0431 6.77702 9.98659 7.1687 9.71018 7.37546C9.43377 7.58221 9.04209 7.52575 8.83534 7.24934C8.62061 6.96228 8.34666 6.72475 8.03206 6.55287C7.71747 6.38099 7.36959 6.27878 7.01201 6.25317C6.65444 6.22756 6.29555 6.27916 5.95967 6.40445C5.62379 6.52974 5.31878 6.7258 5.06534 6.97934L3.19431 8.85037C2.74117 9.32147 2.49051 9.9514 2.49619 10.6052C2.50188 11.2607 2.76481 11.8877 3.22833 12.3512C3.69185 12.8147 4.31888 13.0777 4.97437 13.0834C5.62815 13.089 6.25807 12.8384 6.72917 12.3852L7.79388 11.3205C8.03795 11.0765 8.43368 11.0765 8.67776 11.3205C8.92184 11.5646 8.92184 11.9603 8.67776 12.2044L7.60901 13.2732L7.60126 13.2808C6.894 13.9639 5.94675 14.3419 4.96351 14.3333C3.98027 14.3248 3.03972 13.9304 2.34444 13.2351C1.64916 12.5398 1.25478 11.5993 1.24624 10.616C1.23769 9.6328 1.61567 8.68554 2.29876 7.97828L2.30638 7.97054L4.1813 6.09562C4.18127 6.09564 4.18132 6.09559 4.1813 6.09562C4.56144 5.71535 5.019 5.42121 5.52279 5.23328Z" fill="#0d3cc0"/>
</svg>
