<svg width="111" height="30" viewBox="0 0 111 30" fill="none" xmlns="http://www.w3.org/2000/svg">
<path d="M34.5061 4.25875C37.0843 3.40133 39.8984 3.2063 42.604 3.69754C45.3096 4.18877 47.7893 5.34496 49.7397 7.02459C55.3091 11.795 55.3274 19.4855 49.7774 24.2393C47.8176 25.9174 45.3292 27.0698 42.6168 27.5554C39.9043 28.0411 37.0854 27.839 34.5049 26.9739C37.6161 28.8221 41.3867 29.6749 45.1575 29.3833C48.9284 29.0917 52.4597 27.6741 55.1341 25.3785C56.4558 24.2497 57.5369 22.9339 58.3307 21.4905C59.1244 22.9339 60.2055 24.2497 61.5273 25.3785C64.2017 27.6741 67.7329 29.0917 71.5038 29.3833C75.2747 29.6749 79.0453 28.8221 82.1564 26.9739C79.576 27.839 76.757 28.0411 74.0446 27.5554C71.3321 27.0698 68.8437 25.9174 66.8839 24.2393C61.334 19.4855 61.3522 11.795 66.9216 7.02459C68.872 5.34496 71.3517 4.18877 74.0573 3.69754C76.7629 3.2063 79.577 3.40133 82.1552 4.25875C79.0433 2.41223 75.2744 1.55938 71.5041 1.85095C67.7337 2.14253 64.2027 3.55898 61.5273 5.85306C60.2055 6.98181 59.1244 8.2977 58.3307 9.74101C57.5369 8.2977 56.4558 6.98181 55.1341 5.85306C52.4586 3.55898 48.9276 2.14253 45.1573 1.85095C41.3869 1.55938 37.618 2.41223 34.5061 4.25875Z" fill="white"/>
<path d="M106.894 29.4395H110.623V0.439453H106.894V23.3926L91.8961 0.439453H88.1671V29.4395H91.8961V6.5274L106.894 29.4395Z" fill="white"/>
<path d="M29.5536 0.933071V29.4395H25.8246V6.69194L16.7684 29.4395H13.4492L4.35205 6.77421V29.4395H0.623047V0.933071H5.08965L15.1703 24.8735L25.0869 0.933071H29.5536Z" fill="white"/>
</svg>
